HIERARCHY
ROOT joint_Root
{
	OFFSET 0.0 0.0 0.0
	CHANNELS 6 Xposition Yposition Zposition Zrotation Xrotation Yrotation 
	JOINT Hips
	{
		OFFSET 4.5925 91.4895 -427.239
		CHANNELS 6 Xposition Yposition Zposition Zrotation Xrotation Yrotation 
		JOINT Spine
		{
			OFFSET 15.7357 0.0 0.0
			CHANNELS 6 Xposition Yposition Zposition Zrotation Xrotation Yrotation 
			JOINT Chest
			{
				OFFSET 8.98455 -0.406207 0.0
				CHANNELS 6 Xposition Yposition Zposition Zrotation Xrotation Yrotation 
				JOINT Neck
				{
					OFFSET 16.3773 0.0 0.0
					CHANNELS 6 Xposition Yposition Zposition Zrotation Xrotation Yrotation 
					JOINT Head
					{
						OFFSET 6.45672 0.0 0.0
						CHANNELS 6 Xposition Yposition Zposition Zrotation Xrotation Yrotation 
						End Site
						{
							OFFSET 0.0 0.0 0.0
						}
					}
				}
				JOINT Shoulder_L
				{
					OFFSET 12.9942 -0.242716 4.98039
					CHANNELS 6 Xposition Yposition Zposition Zrotation Xrotation Yrotation 
					JOINT UpperArm_L
					{
						OFFSET 5.34809 0.0 0.0
						CHANNELS 6 Xposition Yposition Zposition Zrotation Xrotation Yrotation 
						JOINT LowerArm_L
						{
							OFFSET 24.3286 1.87007e-05 0.0
							CHANNELS 6 Xposition Yposition Zposition Zrotation Xrotation Yrotation 
							JOINT Hand_L
							{
								OFFSET 22.2916 0.0 0.0
								CHANNELS 6 Xposition Yposition Zposition Zrotation Xrotation Yrotation 
								End Site
								{
									OFFSET 0.0 0.0 0.0
								}
							}
						}
					}
				}
				JOINT Shoulder_R
				{
					OFFSET 12.9945 -0.242716 -4.98039
					CHANNELS 6 Xposition Yposition Zposition Zrotation Xrotation Yrotation 
					JOINT UpperArm_R
					{
						OFFSET -5.34813 0.0 0.0
						CHANNELS 6 Xposition Yposition Zposition Zrotation Xrotation Yrotation 
						JOINT LowerArm_R
						{
							OFFSET -24.3289 0.000322201 0.0
							CHANNELS 6 Xposition Yposition Zposition Zrotation Xrotation Yrotation 
							JOINT Hand_R
							{
								OFFSET -22.2915 -0.000108084 0.0
								CHANNELS 6 Xposition Yposition Zposition Zrotation Xrotation Yrotation 
								End Site
								{
									OFFSET 0.0 0.0 0.0
								}
							}
						}
					}
				}
			}
		}
		JOINT UpperLeg_L
		{
			OFFSET -2.19248 -6.46944 0.0
			CHANNELS 6 Xposition Yposition Zposition Zrotation Xrotation Yrotation 
			JOINT LowerLeg_L
			{
				OFFSET 39.0811 0.0 -1.23785e-05
				CHANNELS 6 Xposition Yposition Zposition Zrotation Xrotation Yrotation 
				JOINT Foot_L
				{
					OFFSET 40.9854 0.0 -1.26872e-05
					CHANNELS 6 Xposition Yposition Zposition Zrotation Xrotation Yrotation 
					JOINT Toes_L
					{
						OFFSET 11.7543 0.0 0.0
						CHANNELS 6 Xposition Yposition Zposition Zrotation Xrotation Yrotation 
						End Site
						{
							OFFSET 0.0 0.0 0.0
						}
					}
				}
			}
		}
		JOINT UpperLeg_R
		{
			OFFSET -2.19251 6.46944 0.0
			CHANNELS 6 Xposition Yposition Zposition Zrotation Xrotation Yrotation 
			JOINT LowerLeg_R
			{
				OFFSET -39.0811 -0.00228153 -0.0401928
				CHANNELS 6 Xposition Yposition Zposition Zrotation Xrotation Yrotation 
				JOINT Foot_R
				{
					OFFSET -40.9854 0.0 0.0
					CHANNELS 6 Xposition Yposition Zposition Zrotation Xrotation Yrotation 
					JOINT Toes_R
					{
						OFFSET -11.7543 0.0 0.0
						CHANNELS 6 Xposition Yposition Zposition Zrotation Xrotation Yrotation 
						End Site
						{
							OFFSET 0.0 0.0 0.0
						}
					}
				}
			}
		}
	}
}
MOTION
Frames:	7
Frame Time:	0.0333333
0.000000 0.000000 0.000000 0.000000 0.000000 -0.000000 -0.679407 91.084500 -0.111037 89.870100 -2.380050 16.270000 15.735700 0.000005 -0.000001 87.996300 79.289900 -88.461300 8.984550 -0.406207 -0.000000 13.639100 -0.764476 -0.838910 16.377300 -0.000001 -0.000001 22.705300 -3.950160 -3.529600 6.456720 -0.000001 -0.000000 10.529300 -3.842430 -1.919310 12.994200 -0.242716 4.980390 -91.889300 6.937230 -74.724600 5.348090 -0.000007 -0.000001 -62.719600 33.650100 -15.606400 24.328600 0.000019 0.000005 10.650200 24.499100 -24.393400 22.291600 -0.000001 0.000005 7.949040 5.297080 0.153923 12.994500 -0.242716 -4.980390 88.620800 10.428300 -82.423000 -5.348130 -0.000001 -0.000004 -62.401500 34.088800 -13.211900 -24.328900 0.000322 -0.000009 2.097230 5.716960 -20.193200 -22.291500 -0.000108 -0.000004 13.011500 5.412990 -3.364410 -2.192480 -6.469440 -0.000000 -172.808000 -15.275000 7.690450 39.081100 -0.000007 -0.000012 -0.138410 0.252511 28.728800 40.985400 -0.000006 -0.000013 1.811530 9.384370 -69.676700 11.754300 -0.000000 0.000003 -0.000213 -0.001952 -16.651100 -2.192510 6.469440 -0.000001 168.173000 25.422900 -169.787000 -39.081100 -0.002282 -0.040193 -0.208895 0.397147 28.116500 -40.985400 0.000008 0.000006 4.183410 19.190000 -70.347000 -11.754300 -0.000006 -0.000006 -0.001498 -0.022247 -17.477700
0.000000 0.000000 0.000000 0.000000 0.000000 -0.000000 -0.596597 91.093200 -0.226400 89.886300 -2.495510 16.369000 15.735700 0.000005 -0.000001 88.097700 79.247600 -88.597500 8.984550 -0.406207 -0.000000 13.724600 -0.731811 -0.911695 16.377300 -0.000001 -0.000001 23.570200 -3.958280 -3.468960 6.456720 -0.000001 -0.000000 10.966700 -3.816020 -1.726440 12.994200 -0.242716 4.980390 -91.897300 6.841870 -74.460400 5.348090 -0.000007 -0.000001 -62.644400 32.077300 -15.499600 24.328600 0.000019 0.000005 11.287000 24.970100 -25.303800 22.291600 -0.000001 0.000005 7.639560 5.309320 -0.192270 12.994500 -0.242716 -4.980390 88.580300 10.311000 -82.116700 -5.348130 -0.000001 -0.000004 -62.197900 32.578300 -13.064100 -24.328900 0.000322 -0.000009 2.148900 5.580630 -21.109900 -22.291500 -0.000108 -0.000004 12.757700 5.417850 -3.526930 -2.192480 -6.469440 -0.000000 -172.843000 -15.380100 7.732840 39.081100 -0.000007 -0.000012 -0.136410 0.248937 28.721600 40.985400 -0.000006 -0.000013 1.862620 9.332260 -69.614400 11.754300 -0.000000 0.000003 -0.000188 -0.001758 -16.644000 -2.192510 6.469440 -0.000001 168.127000 25.361100 -169.821000 -39.081100 -0.002282 -0.040193 -0.205680 0.390637 28.146500 -40.985400 0.000008 0.000006 4.165160 19.250700 -70.246400 -11.754300 -0.000006 -0.000006 -0.001531 -0.022678 -17.495300
0.000000 0.000000 0.000000 0.000000 0.000000 -0.000000 -0.523845 91.097700 -0.355182 89.874600 -2.573410 16.489200 15.735700 0.000005 -0.000001 88.142700 79.183800 -88.664900 8.984550 -0.406207 -0.000000 13.852700 -0.720824 -0.957051 16.377300 -0.000001 -0.000001 24.234300 -3.974130 -3.300960 6.456720 -0.000001 -0.000000 11.415800 -3.839960 -1.649380 12.994200 -0.242716 4.980390 -91.912800 6.729920 -74.093000 5.348090 -0.000007 -0.000001 -62.092900 30.192200 -15.646800 24.328600 0.000019 0.000005 12.160200 25.419800 -26.656100 22.291600 -0.000001 0.000005 6.629630 5.322640 -0.572760 12.994500 -0.242716 -4.980390 88.534000 10.082200 -81.682700 -5.348130 -0.000001 -0.000004 -61.744100 30.362000 -13.082900 -24.328900 0.000322 -0.000009 2.175610 5.281520 -22.436100 -22.291500 -0.000108 -0.000004 12.663200 5.418470 -3.547300 -2.192480 -6.469440 -0.000000 -172.845000 -15.452800 7.762200 39.081100 -0.000007 -0.000012 -0.134966 0.245920 28.759100 40.985400 -0.000006 -0.000013 1.929800 9.339400 -69.567000 11.754300 -0.000000 0.000003 -0.000193 -0.001795 -16.645300 -2.192510 6.469440 -0.000001 168.091000 25.312400 -169.827000 -39.081100 -0.002282 -0.040193 -0.203908 0.386822 28.177400 -40.985400 0.000008 0.000006 4.146720 19.312700 -70.147200 -11.754300 -0.000006 -0.000006 -0.001514 -0.022461 -17.486500
0.000000 0.000000 0.000000 0.000000 0.000000 -0.000000 -0.450401 91.105600 -0.492791 89.835300 -2.673420 16.522100 15.735700 0.000005 -0.000001 88.070600 79.153600 -88.621700 8.984550 -0.406207 -0.000000 13.911800 -0.751509 -1.010950 16.377300 -0.000001 -0.000001 24.895800 -3.971840 -3.220170 6.456720 -0.000001 -0.000000 11.807200 -3.773420 -1.420580 12.994200 -0.242716 4.980390 -91.943000 6.650000 -73.672200 5.348090 -0.000007 -0.000001 -60.679200 28.257800 -16.022700 24.328600 0.000019 0.000005 13.442600 25.887600 -28.697700 22.291600 -0.000001 0.000005 5.445500 5.336340 -0.974807 12.994500 -0.242716 -4.980390 88.493700 9.871130 -81.279300 -5.348130 -0.000001 -0.000004 -60.895100 27.428700 -13.274100 -24.328900 0.000322 -0.000009 2.359640 5.255240 -24.232700 -22.291500 -0.000108 -0.000004 12.310800 5.415440 -3.446120 -2.192480 -6.469440 -0.000000 -172.851000 -15.528300 7.676890 39.081100 -0.000007 -0.000012 -0.133218 0.242215 28.810900 40.985400 -0.000006 -0.000013 1.982180 9.292340 -69.506600 11.754300 -0.000000 0.000003 -0.000195 -0.001811 -16.645900 -2.192510 6.469440 -0.000001 168.146000 25.255900 -169.940000 -39.081100 -0.002282 -0.040193 -0.202830 0.384655 28.187100 -40.985400 0.000008 0.000006 4.111680 19.323500 -70.015600 -11.754300 -0.000006 -0.000006 -0.001516 -0.022482 -17.487300
0.000000 0.000000 0.000000 0.000000 0.000000 -0.000000 -0.364372 91.114100 -0.643724 89.845000 -2.766810 16.620100 15.735700 0.000005 -0.000001 87.991800 79.120400 -88.584000 8.984550 -0.406207 -0.000000 13.976800 -0.785724 -1.088490 16.377300 -0.000001 -0.000001 25.577900 -3.924960 -3.107110 6.456720 -0.000001 -0.000000 12.189500 -3.685410 -1.245470 12.994200 -0.242716 4.980390 -91.963200 6.602900 -73.401000 5.348090 -0.000007 -0.000001 -58.669800 25.657300 -16.467200 24.328600 0.000019 0.000005 14.902900 26.042600 -31.222800 22.291600 -0.000001 0.000005 4.335550 5.349190 -1.353810 12.994500 -0.242716 -4.980390 88.451400 9.621840 -80.812400 -5.348130 -0.000001 -0.000004 -59.515000 24.180300 -13.814400 -24.328900 0.000322 -0.000009 2.359780 4.794450 -26.257900 -22.291500 -0.000108 -0.000004 12.389900 5.417760 -3.523800 -2.192480 -6.469440 -0.000000 -172.908000 -15.597600 7.673240 39.081100 -0.000007 -0.000012 -0.128102 0.232779 28.824900 40.985400 -0.000006 -0.000013 2.047330 9.248010 -69.429900 11.754300 -0.000000 0.000003 -0.000218 -0.001989 -16.652400 -2.192510 6.469440 -0.000001 168.108000 25.211500 -169.989000 -39.081100 -0.002282 -0.040193 -0.197362 0.373957 28.218500 -40.985400 0.000008 0.000006 4.097130 19.396300 -69.903000 -11.754300 -0.000006 -0.000006 -0.001562 -0.023087 -17.511900
0.000000 0.000000 0.000000 0.000000 0.000000 -0.000000 -0.281943 91.119800 -0.777243 89.846800 -2.896030 16.690400 15.735700 0.000005 -0.000001 87.910600 79.101700 -88.545200 8.984550 -0.406207 -0.000000 14.012700 -0.819971 -1.168760 16.377300 -0.000001 -0.000001 26.283600 -3.870610 -2.993850 6.456720 -0.000001 -0.000000 12.559800 -3.572550 -1.040850 12.994200 -0.242716 4.980390 -91.957700 6.444350 -73.062600 5.348090 -0.000007 -0.000001 -56.218800 22.551700 -17.344000 24.328600 0.000019 0.000005 15.824300 25.534800 -33.326000 22.291600 -0.000001 0.000005 3.799800 5.350910 -1.404700 12.994500 -0.242716 -4.980390 88.442500 9.266920 -80.415700 -5.348130 -0.000001 -0.000004 -57.891100 20.175900 -14.661800 -24.328900 0.000322 -0.000009 2.405790 4.452840 -28.431800 -22.291500 -0.000108 -0.000004 12.513300 5.413800 -3.391510 -2.192480 -6.469440 -0.000000 -172.943000 -15.700100 7.647340 39.081100 -0.000007 -0.000012 -0.124326 0.225655 28.853000 40.985400 -0.000006 -0.000013 2.101630 9.191440 -69.366000 11.754300 -0.000000 0.000003 -0.000189 -0.001768 -16.644300 -2.192510 6.469440 -0.000001 168.112000 25.084800 -170.080000 -39.081100 -0.002282 -0.040193 -0.199831 0.378015 28.252800 -40.985400 0.000008 0.000006 4.067600 19.441900 -69.792400 -11.754300 -0.000006 -0.000006 -0.001610 -0.023727 -17.537900
0.000000 0.000000 0.000000 0.000000 0.000000 -0.000000 -0.201431 91.123800 -0.908618 89.848700 -3.031640 16.818700 15.735700 0.000005 -0.000001 88.002900 79.087600 -88.680200 8.984550 -0.406207 -0.000000 14.042200 -0.788733 -1.257970 16.377300 -0.000001 -0.000001 27.103800 -3.849650 -2.897380 6.456720 -0.000001 -0.000000 12.839800 -3.456610 -0.724630 12.994200 -0.242716 4.980390 -91.885300 6.134840 -72.880900 5.348090 -0.000007 -0.000001 -53.891700 18.214100 -18.336500 24.328600 0.000019 0.000005 16.544600 24.845400 -35.259900 22.291600 -0.000001 0.000005 3.336110 5.344660 -1.216100 12.994500 -0.242716 -4.980390 88.425900 8.930120 -79.960600 -5.348130 -0.000001 -0.000004 -55.938500 15.668600 -15.822700 -24.328900 0.000322 -0.000009 2.435020 4.125770 -30.598100 -22.291500 -0.000108 -0.000004 12.892200 5.407820 -3.193340 -2.192480 -6.469440 -0.000000 -172.951000 -15.816500 7.703050 39.081100 -0.000007 -0.000012 -0.124554 0.225861 28.875200 40.985400 -0.000006 -0.000013 2.156270 9.131730 -69.314700 11.754300 -0.000000 0.000003 -0.000208 -0.001916 -16.649700 -2.192510 6.469440 -0.000001 168.085000 24.981000 -170.106000 -39.081100 -0.002282 -0.040193 -0.194603 0.367664 28.293200 -40.985400 0.000008 0.000006 4.040440 19.483100 -69.685700 -11.754300 -0.000006 -0.000006 -0.001590 -0.023456 -17.526900
